<svg width="720" height="320" viewBox="0 0 720 320" fill="none" xmlns="http://www.w3.org/2000/svg">
<g clip-path="url(#clip0_0_3)">
<rect width="720" height="320" fill="#161616"/>
<path d="M137.424 159.008L135.888 153.296H145.8L141.312 170H140.376L137.88 160.712L135.384 170H134.448L129.96 153.296H130.872L134.904 168.344L137.424 159.008ZM144.648 154.184H137.04L138.336 159.008L140.856 168.344L144.648 154.184ZM149.886 153.296H161.646V154.184H150.774V160.952H160.23V161.84H150.774V169.112H161.646V170H149.886V153.296ZM168.251 170V153.296H169.139V169.112H180.779V170H168.251ZM185.441 163.616C185.441 164.672 185.705 165.648 186.233 166.544C186.777 167.44 187.497 168.152 188.393 168.68C189.305 169.208 190.289 169.472 191.345 169.472C192.433 169.472 193.417 169.256 194.297 168.824C195.177 168.392 195.865 167.792 196.361 167.024C196.873 166.256 197.137 165.392 197.153 164.432H198.017C198.017 165.536 197.721 166.544 197.129 167.456C196.553 168.352 195.753 169.064 194.729 169.592C193.721 170.104 192.593 170.36 191.345 170.36C190.129 170.36 189.001 170.056 187.961 169.448C186.921 168.84 186.097 168.024 185.489 167C184.881 165.96 184.577 164.832 184.577 163.616V159.68C184.577 158.464 184.873 157.344 185.465 156.32C186.073 155.28 186.889 154.456 187.913 153.848C188.953 153.24 190.081 152.936 191.297 152.936C192.529 152.936 193.649 153.2 194.657 153.728C195.681 154.24 196.489 154.952 197.081 155.864C197.673 156.76 197.969 157.76 197.969 158.864H197.105C197.089 157.904 196.825 157.04 196.313 156.272C195.801 155.504 195.105 154.904 194.225 154.472C193.361 154.04 192.385 153.824 191.297 153.824C190.241 153.824 189.265 154.088 188.369 154.616C187.473 155.144 186.761 155.856 186.233 156.752C185.705 157.648 185.441 158.624 185.441 159.68V163.616ZM208.943 152.936C210.191 152.936 211.343 153.248 212.398 153.872C213.455 154.48 214.287 155.312 214.895 156.368C215.519 157.424 215.831 158.576 215.831 159.824V163.472C215.831 164.72 215.519 165.872 214.895 166.928C214.287 167.984 213.455 168.824 212.398 169.448C211.343 170.056 210.191 170.36 208.943 170.36C207.695 170.36 206.543 170.056 205.487 169.448C204.431 168.824 203.591 167.984 202.967 166.928C202.359 165.872 202.055 164.72 202.055 163.472V159.824C202.055 158.576 202.359 157.424 202.967 156.368C203.591 155.312 204.431 154.48 205.487 153.872C206.543 153.248 207.695 152.936 208.943 152.936ZM202.943 163.472C202.943 164.56 203.207 165.568 203.735 166.496C204.279 167.408 205.007 168.136 205.919 168.68C206.847 169.208 207.855 169.472 208.943 169.472C210.031 169.472 211.031 169.208 211.943 168.68C212.871 168.136 213.599 167.408 214.127 166.496C214.671 165.568 214.943 164.56 214.943 163.472V159.824C214.943 158.736 214.671 157.736 214.127 156.824C213.599 155.896 212.871 155.168 211.943 154.64C211.031 154.096 210.031 153.824 208.943 153.824C207.855 153.824 206.847 154.096 205.919 154.64C205.007 155.168 204.279 155.896 203.735 156.824C203.207 157.736 202.943 158.736 202.943 159.824V163.472ZM220.852 170H219.964V153.296H220.924L226.756 163.592L232.564 153.296H233.452V170H232.564V155.072L227.164 164.6H226.324L220.852 154.952V170ZM238.714 153.296H250.474V154.184H239.602V160.952H249.058V161.84H239.602V169.112H250.474V170H238.714V153.296ZM260.055 168.152C260.055 167.56 260.263 167.056 260.679 166.64C261.111 166.208 261.631 165.992 262.239 165.992C262.847 165.992 263.359 166.208 263.775 166.64C264.207 167.056 264.423 167.56 264.423 168.152C264.423 168.52 264.319 168.888 264.111 169.256L261.927 173.024H260.895L262.479 170.312C262.431 170.328 262.351 170.336 262.239 170.336C261.647 170.336 261.135 170.12 260.703 169.688C260.271 169.256 260.055 168.744 260.055 168.152ZM291.267 169.976V153.272H292.203L303.867 164.624V153.272H304.755V169.976H291.267ZM320.96 153.296V154.184H315.968V169.112H320.96V170H310.136V169.112H315.104V154.184H310.136V153.296H320.96ZM327.566 163.616C327.566 164.672 327.83 165.648 328.358 166.544C328.902 167.44 329.622 168.152 330.518 168.68C331.43 169.208 332.414 169.472 333.47 169.472C334.558 169.472 335.542 169.256 336.422 168.824C337.302 168.392 337.99 167.792 338.486 167.024C338.998 166.256 339.262 165.392 339.278 164.432H340.142C340.142 165.536 339.846 166.544 339.254 167.456C338.678 168.352 337.878 169.064 336.854 169.592C335.846 170.104 334.718 170.36 333.47 170.36C332.254 170.36 331.126 170.056 330.086 169.448C329.046 168.84 328.222 168.024 327.614 167C327.006 165.96 326.702 164.832 326.702 163.616V159.68C326.702 158.464 326.998 157.344 327.59 156.32C328.198 155.28 329.014 154.456 330.038 153.848C331.078 153.24 332.206 152.936 333.422 152.936C334.654 152.936 335.774 153.2 336.782 153.728C337.806 154.24 338.614 154.952 339.206 155.864C339.798 156.76 340.094 157.76 340.094 158.864H339.23C339.214 157.904 338.95 157.04 338.438 156.272C337.926 155.504 337.23 154.904 336.35 154.472C335.486 154.04 334.51 153.824 333.422 153.824C332.366 153.824 331.39 154.088 330.494 154.616C329.598 155.144 328.886 155.856 328.358 156.752C327.83 157.648 327.566 158.624 327.566 159.68V163.616ZM345.308 153.296H357.068V154.184H346.196V160.952H355.652V161.84H346.196V169.112H357.068V170H345.308V153.296ZM393.343 153.296V154.184H387.031V170H386.167V154.184H379.855V153.296H393.343ZM404.364 152.936C405.612 152.936 406.764 153.248 407.82 153.872C408.876 154.48 409.708 155.312 410.316 156.368C410.94 157.424 411.252 158.576 411.252 159.824V163.472C411.252 164.72 410.94 165.872 410.316 166.928C409.708 167.984 408.876 168.824 407.82 169.448C406.764 170.056 405.612 170.36 404.364 170.36C403.116 170.36 401.964 170.056 400.908 169.448C399.852 168.824 399.012 167.984 398.388 166.928C397.78 165.872 397.476 164.72 397.476 163.472V159.824C397.476 158.576 397.78 157.424 398.388 156.368C399.012 155.312 399.852 154.48 400.908 153.872C401.964 153.248 403.116 152.936 404.364 152.936ZM398.364 163.472C398.364 164.56 398.628 165.568 399.156 166.496C399.7 167.408 400.428 168.136 401.34 168.68C402.268 169.208 403.276 169.472 404.364 169.472C405.452 169.472 406.452 169.208 407.364 168.68C408.292 168.136 409.02 167.408 409.548 166.496C410.092 165.568 410.364 164.56 410.364 163.472V159.824C410.364 158.736 410.092 157.736 409.548 156.824C409.02 155.896 408.292 155.168 407.364 154.64C406.452 154.096 405.452 153.824 404.364 153.824C403.276 153.824 402.268 154.096 401.34 154.64C400.428 155.168 399.7 155.896 399.156 156.824C398.628 157.736 398.364 158.736 398.364 159.824V163.472ZM434.04 170H433.152V153.296H434.112L439.944 163.592L445.752 153.296H446.64V170H445.752V155.072L440.352 164.6H439.512L434.04 154.952V170ZM451.901 153.296H463.661V154.184H452.789V160.952H462.245V161.84H452.789V169.112H463.661V170H451.901V153.296ZM469.667 153.296H481.427V154.184H470.555V160.952H480.011V161.84H470.555V169.112H481.427V170H469.667V153.296ZM499.937 153.296V154.184H493.625V170H492.761V154.184H486.449V153.296H499.937ZM522.82 153.296L528.748 162.224L534.628 153.296H535.684L529.18 163.16V170H528.292V163.16L521.764 153.296H522.82ZM546.489 152.936C547.737 152.936 548.889 153.248 549.945 153.872C551.001 154.48 551.833 155.312 552.441 156.368C553.065 157.424 553.377 158.576 553.377 159.824V163.472C553.377 164.72 553.065 165.872 552.441 166.928C551.833 167.984 551.001 168.824 549.945 169.448C548.889 170.056 547.737 170.36 546.489 170.36C545.241 170.36 544.089 170.056 543.033 169.448C541.977 168.824 541.137 167.984 540.513 166.928C539.905 165.872 539.601 164.72 539.601 163.472V159.824C539.601 158.576 539.905 157.424 540.513 156.368C541.137 155.312 541.977 154.48 543.033 153.872C544.089 153.248 545.241 152.936 546.489 152.936ZM540.489 163.472C540.489 164.56 540.753 165.568 541.281 166.496C541.825 167.408 542.553 168.136 543.465 168.68C544.393 169.208 545.401 169.472 546.489 169.472C547.577 169.472 548.577 169.208 549.489 168.68C550.417 168.136 551.145 167.408 551.673 166.496C552.217 165.568 552.489 164.56 552.489 163.472V159.824C552.489 158.736 552.217 157.736 551.673 156.824C551.145 155.896 550.417 155.168 549.489 154.64C548.577 154.096 547.577 153.824 546.489 153.824C545.401 153.824 544.393 154.096 543.465 154.64C542.553 155.168 541.825 155.896 541.281 156.824C540.753 157.736 540.489 158.736 540.489 159.824V163.472ZM557.511 153.296H558.399V163.616C558.399 164.672 558.663 165.648 559.191 166.544C559.719 167.44 560.431 168.152 561.327 168.68C562.223 169.208 563.199 169.472 564.255 169.472C565.311 169.472 566.287 169.208 567.183 168.68C568.079 168.152 568.791 167.44 569.319 166.544C569.847 165.648 570.111 164.672 570.111 163.616V153.296H570.999V163.616C570.999 164.832 570.695 165.96 570.087 167C569.479 168.024 568.655 168.84 567.615 169.448C566.591 170.056 565.471 170.36 564.255 170.36C563.039 170.36 561.911 170.056 560.871 169.448C559.847 168.84 559.031 168.024 558.423 167C557.815 165.96 557.511 164.832 557.511 163.616V153.296ZM583.941 153.296L583.053 164.24H580.989L580.101 153.296H583.941ZM579.837 168.176C579.837 167.584 580.045 167.08 580.461 166.664C580.893 166.232 581.413 166.016 582.021 166.016C582.629 166.016 583.141 166.232 583.557 166.664C583.989 167.08 584.205 167.584 584.205 168.176C584.205 168.768 583.989 169.28 583.557 169.712C583.141 170.144 582.629 170.36 582.021 170.36C581.429 170.36 580.917 170.144 580.485 169.712C580.053 169.28 579.837 168.768 579.837 168.176Z" fill="#F6F6F6"/>
<path d="M27.875 0.0499825C27.875 7.46062 24.932 14.5679 19.6931 19.8092C14.4541 25.0505 7.34813 27.9967 -0.0625014 28C-7.4753 28 -14.5845 25.0553 -19.8261 19.8136C-25.0678 14.572 -28.0125 7.46278 -28.0125 0.0499825C-28.0125 -7.36065 -25.0695 -14.4679 -19.8305 -19.7092C-14.5916 -24.9505 -7.48563 -27.8967 -0.0749946 -27.9C7.33781 -27.9 14.447 -24.9553 19.6886 -19.7137C24.9303 -14.472 27.875 -7.36282 27.875 0.0499825ZM60.975 -133.575C44.15 -133.575 22.1375 -121.575 -0.125003 -100.8C-22.375 -121.463 -44.4 -133.325 -61.2125 -133.325C-66.3375 -133.325 -71 -132.163 -75.0375 -129.85C-92.225 -119.938 -96.075 -89.05 -87.2 -50.2875C-125.25 -38.5375 -150 -19.75 -150 0.0499825C-150 19.925 -125.125 38.7625 -86.9625 50.425C-95.7625 89.3375 -91.8375 120.275 -74.6125 130.175C-70.6125 132.512 -65.9875 133.612 -60.8375 133.612C-44.025 133.612 -22 121.613 0.262499 100.813C22.5125 121.488 44.5375 133.35 61.35 133.35C66.475 133.35 71.1375 132.225 75.175 129.912C92.35 120.012 96.2125 89.125 87.3375 50.35C125.25 38.7 150 19.875 150 0.0499825C150 -19.825 125.125 -38.6625 86.9625 -50.35C95.7625 -89.225 91.8375 -120.188 74.6125 -130.1C70.6375 -132.4 66.025 -133.563 60.975 -133.575ZM60.9125 -119.95V-119.875C63.725 -119.875 65.9875 -119.325 67.8875 -118.288C76.2125 -113.513 79.825 -95.35 77.0125 -71.9875C76.3375 -66.2375 75.2375 -60.175 73.8875 -53.9875C61.8875 -56.9375 48.8125 -59.2 35.05 -60.6625C26.8 -71.975 18.2375 -82.25 9.6125 -91.25C29.5125 -109.75 48.2 -119.9 60.925 -119.938L60.9125 -119.95ZM-61.2125 -119.7C-48.5625 -119.7 -29.7875 -109.6 -9.8375 -91.2C-18.4125 -82.2 -26.9625 -71.9875 -35.0875 -60.675C-48.925 -59.2125 -62.0125 -56.95 -74 -53.95C-75.4 -60.075 -76.4375 -66 -77.175 -71.7C-80.05 -95.05 -76.5 -113.2 -68.25 -118.038C-65.875 -119.163 -63.25 -119.638 -61.2125 -119.7ZM-0.187504 -81.575C5.5 -75.725 11.1875 -69.175 16.8125 -62.025C11.3125 -62.275 5.6875 -62.45 0 -62.45C-5.75 -62.45 -11.4375 -62.325 -17 -62.025C-11.5 -69.175 -5.8125 -75.7125 -0.187504 -81.575ZM0 -48.75C9.25 -48.75 18.4625 -48.325 27.525 -47.5875C32.6 -40.3125 37.55 -32.55 42.3125 -24.3375C46.9625 -16.3375 51.1875 -8.21252 55.0375 -0.0125189C51.1875 8.17498 46.9625 16.3625 42.375 24.3625C37.625 32.6125 32.7125 40.4625 27.625 47.7375C18.525 48.525 9.3 48.9625 0 48.9625C-9.25 48.9625 -18.4625 48.525 -27.525 47.8C-32.6 40.525 -37.55 32.75 -42.3125 24.55C-46.9625 16.55 -51.1875 8.42498 -55.0375 0.224982C-51.25 -7.98752 -46.9625 -16.1875 -42.375 -24.2C-37.625 -32.45 -32.7125 -40.275 -27.625 -47.55C-18.525 -48.35 -9.3 -48.775 0 -48.775V-48.75ZM-45.4375 -45.575C-48.4375 -40.8625 -51.4375 -36.0375 -54.2375 -31.075C-57.05 -26.2 -59.675 -21.3 -62.175 -16.4C-65.4875 -24.6 -68.3 -32.775 -70.625 -40.7375C-62.625 -42.6125 -54.1875 -44.2875 -45.4375 -45.575ZM45.3125 -45.575C54 -44.2875 62.375 -42.7 70.3875 -40.7375C68.1375 -32.8375 65.325 -24.7125 62.1375 -16.575C59.6375 -21.45 57.0125 -26.3625 54.1375 -31.25C51.325 -36.15 48.325 -40.925 45.325 -45.575H45.3125ZM83.6 -37.1375C89.65 -35.2625 95.4 -33.175 100.787 -30.9125C122.437 -21.6625 136.438 -9.56251 136.438 0.0374894C136.375 9.63749 122.375 21.7875 100.725 30.975C95.475 33.225 89.725 35.25 83.7875 37.1375C80.2875 25.1625 75.7125 12.6875 70.0375 -0.112512C75.6625 -12.825 80.1625 -25.2375 83.6 -37.1625V-37.1375ZM-83.8375 -37.0875C-80.3625 -25.0875 -75.775 -12.625 -70.0875 0.16248C-75.7125 12.875 -80.2375 25.2875 -83.6625 37.2125C-89.7125 35.3375 -95.4625 33.2375 -100.787 30.9625C-122.437 21.75 -136.437 9.63749 -136.437 0.0374894C-136.437 -9.56251 -122.437 -21.7375 -100.787 -30.9125C-95.5375 -33.1625 -89.7875 -35.1875 -83.8375 -37.0875ZM62.1375 16.4125C65.45 24.625 68.2625 32.8125 70.5875 40.7625C62.5875 42.725 54.1375 44.3875 45.3875 45.6375C48.3875 40.95 51.3875 36.1125 54.2 31.1625C57.0125 26.2875 59.625 21.3125 62.1375 16.4125ZM-62.175 16.6625C-59.675 21.5625 -57.05 26.45 -54.175 31.35C-51.3 36.225 -48.3625 41 -45.3625 45.6375C-54.05 44.3625 -62.425 42.7625 -70.4375 40.8125C-68.1875 32.9375 -65.3625 24.7875 -62.1875 16.65L-62.175 16.6625ZM74 54C75.4 60.1625 76.5 66.1 77.175 71.7875C80.05 95.1375 76.5 113.288 68.25 118.138C66.4125 119.263 64.025 119.738 61.2125 119.738C48.5625 119.738 29.7875 109.65 9.8375 91.2375C18.4125 82.2375 26.9625 72.0375 35.0875 60.7375C48.925 59.2625 62.0125 57 74 54ZM-73.875 54.125C-61.875 57.05 -48.8 59.3125 -35.0375 60.775C-26.7875 72.0875 -18.225 82.3625 -9.6 91.35C-29.5375 109.888 -48.25 120.038 -60.975 120.038C-63.725 119.975 -66.05 119.413 -67.8875 118.388C-76.2125 113.638 -79.825 95.4625 -77.0125 72.1C-76.3375 66.35 -75.225 60.3 -73.875 54.125ZM-16.875 62.125C-11.375 62.375 -5.75 62.55 -0.0625014 62.55C5.6875 62.55 11.375 62.425 16.9375 62.125C11.4375 69.275 5.75 75.8125 0.125003 81.6875C-5.5625 75.8125 -11.25 69.275 -16.875 62.125Z" fill="#61DAFB"/>
<path d="M747.875 320.05C747.875 327.461 744.932 334.568 739.693 339.809C734.454 345.051 727.348 347.997 719.937 348C712.525 348 705.416 345.055 700.174 339.814C694.932 334.572 691.987 327.463 691.987 320.05C691.987 312.639 694.931 305.532 700.169 300.291C705.408 295.05 712.514 292.103 719.925 292.1C727.338 292.1 734.447 295.045 739.689 300.286C744.93 305.528 747.875 312.637 747.875 320.05ZM780.975 186.425C764.15 186.425 742.137 198.425 719.875 219.2C697.625 198.538 675.6 186.675 658.788 186.675C653.663 186.675 649 187.838 644.963 190.15C627.775 200.063 623.925 230.95 632.8 269.713C594.75 281.463 570 300.25 570 320.05C570 339.925 594.875 358.763 633.038 370.425C624.238 409.338 628.163 440.275 645.388 450.175C649.388 452.513 654.012 453.613 659.162 453.613C675.975 453.613 698 441.613 720.262 420.813C742.512 441.488 764.538 453.35 781.35 453.35C786.475 453.35 791.137 452.225 795.175 449.913C812.35 440.013 816.212 409.125 807.337 370.35C845.25 358.7 870 339.875 870 320.05C870 300.175 845.125 281.338 806.963 269.65C815.763 230.775 811.837 199.813 794.612 189.9C790.637 187.6 786.025 186.438 780.975 186.425ZM780.912 200.05V200.125C783.725 200.125 785.987 200.675 787.887 201.713C796.212 206.488 799.825 224.65 797.012 248.013C796.337 253.763 795.237 259.825 793.887 266.013C781.887 263.063 768.812 260.8 755.05 259.337C746.8 248.025 738.238 237.75 729.613 228.75C749.513 210.25 768.2 200.1 780.925 200.063L780.912 200.05ZM658.788 200.3C671.438 200.3 690.213 210.4 710.163 228.8C701.588 237.8 693.037 248.013 684.912 259.325C671.075 260.788 657.987 263.05 646 266.05C644.6 259.925 643.563 254 642.825 248.3C639.95 224.95 643.5 206.8 651.75 201.963C654.125 200.838 656.75 200.363 658.788 200.3ZM719.812 238.425C725.5 244.275 731.188 250.825 736.813 257.975C731.313 257.725 725.688 257.55 720 257.55C714.25 257.55 708.563 257.675 703 257.975C708.5 250.825 714.187 244.288 719.812 238.425ZM720 271.25C729.25 271.25 738.462 271.675 747.525 272.412C752.6 279.687 757.55 287.45 762.313 295.663C766.963 303.663 771.187 311.787 775.037 319.987C771.187 328.175 766.963 336.363 762.375 344.363C757.625 352.613 752.713 360.463 747.625 367.738C738.525 368.525 729.3 368.962 720 368.962C710.75 368.962 701.538 368.525 692.475 367.8C687.4 360.525 682.45 352.75 677.687 344.55C673.037 336.55 668.813 328.425 664.963 320.225C668.75 312.012 673.037 303.813 677.625 295.8C682.375 287.55 687.287 279.725 692.375 272.45C701.475 271.65 710.7 271.225 720 271.225V271.25ZM674.562 274.425C671.562 279.138 668.562 283.963 665.762 288.925C662.95 293.8 660.325 298.7 657.825 303.6C654.513 295.4 651.7 287.225 649.375 279.263C657.375 277.388 665.812 275.713 674.562 274.425ZM765.312 274.425C774 275.713 782.375 277.3 790.388 279.263C788.138 287.163 785.325 295.287 782.138 303.425C779.638 298.55 777.012 293.638 774.137 288.75C771.325 283.85 768.325 279.075 765.325 274.425H765.312ZM803.6 282.863C809.65 284.738 815.4 286.825 820.787 289.088C842.437 298.338 856.438 310.438 856.438 320.038C856.375 329.638 842.375 341.787 820.725 350.975C815.475 353.225 809.725 355.25 803.787 357.137C800.287 345.162 795.713 332.688 790.038 319.888C795.663 307.175 800.162 294.763 803.6 282.838V282.863ZM636.163 282.913C639.638 294.913 644.225 307.375 649.913 320.162C644.288 332.875 639.763 345.288 636.338 357.213C630.288 355.338 624.538 353.238 619.213 350.963C597.563 341.75 583.563 329.638 583.563 320.038C583.563 310.438 597.563 298.263 619.213 289.088C624.463 286.838 630.213 284.813 636.163 282.913ZM782.138 336.412C785.45 344.625 788.262 352.812 790.587 360.762C782.587 362.725 774.137 364.388 765.387 365.638C768.387 360.95 771.388 356.113 774.2 351.163C777.013 346.288 779.625 341.312 782.138 336.412ZM657.825 336.663C660.325 341.563 662.95 346.45 665.825 351.35C668.7 356.225 671.638 361 674.638 365.638C665.95 364.363 657.575 362.763 649.562 360.813C651.812 352.938 654.638 344.787 657.813 336.65L657.825 336.663ZM794 374C795.4 380.162 796.5 386.1 797.175 391.788C800.05 415.138 796.5 433.288 788.25 438.138C786.412 439.263 784.025 439.738 781.212 439.738C768.562 439.738 749.787 429.65 729.837 411.238C738.412 402.238 746.963 392.037 755.088 380.737C768.925 379.262 782.013 377 794 374ZM646.125 374.125C658.125 377.05 671.2 379.312 684.962 380.775C693.212 392.087 701.775 402.363 710.4 411.35C690.463 429.888 671.75 440.038 659.025 440.038C656.275 439.975 653.95 439.413 652.112 438.388C643.787 433.638 640.175 415.463 642.988 392.1C643.663 386.35 644.775 380.3 646.125 374.125ZM703.125 382.125C708.625 382.375 714.25 382.55 719.937 382.55C725.687 382.55 731.375 382.425 736.937 382.125C731.437 389.275 725.75 395.813 720.125 401.688C714.438 395.813 708.75 389.275 703.125 382.125Z" fill="#61DAFB"/>
</g>
<defs>
<clipPath id="clip0_0_3">
<rect width="720" height="320" fill="white"/>
</clipPath>
</defs>
</svg>
